{
	"asset":{
		"generator":"Khronos glTF Blender I/O v4.0.44",
		"version":"2.0"
	},
	"extensionsUsed":[
		"KHR_materials_transmission",
		"KHR_materials_ior"
	],
	"scene":0,
	"scenes":[
		{
			"name":"Scene",
			"nodes":[
				5,
				11,
				12,
				14,
				16
			]
		}
	],
	"nodes":[
		{
			"mesh":0,
			"name":"Cube.001",
			"scale":[
				0.42538437247276306,
				0.7871364951133728,
				0.42538437247276306
			],
			"translation":[
				0,
				-0.9166790246963501,
				0
			]
		},
		{
			"mesh":1,
			"name":"Cube.002",
			"scale":[
				0.2599077820777893,
				0.2599077820777893,
				0.28474295139312744
			],
			"translation":[
				0.8633898496627808,
				-0.16268670558929443,
				0.0006566643714904785
			]
		},
		{
			"mesh":2,
			"name":"Cube.004",
			"rotation":[
				0.002801700495183468,
				0.1676870882511139,
				0.020997444167733192,
				0.985612690448761
			],
			"scale":[
				0.07342429459095001,
				0.0734243094921112,
				0.07342430204153061
			],
			"translation":[
				0.2651565670967102,
				-0.17883098125457764,
				0.7414995431900024
			]
		},
		{
			"mesh":3,
			"name":"Cube.006",
			"rotation":[
				-0.1206597089767456,
				0.13621926307678223,
				-0.7094881534576416,
				0.6808173060417175
			],
			"scale":[
				0.04413416236639023,
				0.04413416236639023,
				0.04413416236639023
			],
			"translation":[
				0.29433131217956543,
				0.06382739543914795,
				0.71653151512146
			]
		},
		{
			"mesh":4,
			"name":"Cube.010",
			"scale":[
				0.052788179367780685,
				0.05278817564249039,
				0.05278817564249039
			],
			"translation":[
				0,
				-0.2712833881378174,
				0.7770081758499146
			]
		},
		{
			"children":[
				0,
				1,
				2,
				3,
				4
			],
			"mesh":5,
			"name":"Cube",
			"translation":[
				0,
				1.2471485137939453,
				0
			]
		},
		{
			"mesh":6,
			"name":"Vert.001",
			"rotation":[
				0,
				0.2308807671070099,
				-0.54054194688797,
				0.80901700258255
			]
		},
		{
			"mesh":7,
			"name":"Vert.002",
			"rotation":[
				0,
				0.37357285618782043,
				-0.8746152520179749,
				0.30901697278022766
			]
		},
		{
			"mesh":8,
			"name":"Vert.003",
			"rotation":[
				0,
				-0.3735728859901428,
				0.8746151924133301,
				0.3090171813964844
			]
		},
		{
			"mesh":9,
			"name":"Vert.004",
			"rotation":[
				0,
				-0.23088064789772034,
				0.5405417084693909,
				0.8090171813964844
			]
		},
		{
			"children":[
				6,
				7,
				8,
				9
			],
			"mesh":10,
			"name":"Vert",
			"rotation":[
				-0.20046837627887726,
				0,
				0,
				0.9797001481056213
			],
			"scale":[
				1.2986838817596436,
				1.2986838817596436,
				1.2986838817596436
			],
			"translation":[
				0.00484919548034668,
				0.8156872987747192,
				0.011709928512573242
			]
		},
		{
			"children":[
				10
			],
			"mesh":11,
			"name":"Cube.008",
			"scale":[
				1.0034855604171753,
				1.0034855604171753,
				1.0034854412078857
			],
			"translation":[
				1.127394199371338,
				-0.23860451579093933,
				1.0126526355743408
			]
		},
		{
			"mesh":12,
			"name":"Cube.005",
			"scale":[
				0.3680427074432373,
				0.3680427074432373,
				0.3680427074432373
			],
			"translation":[
				1.1121034622192383,
				-0.32621508836746216,
				1.0861115455627441
			]
		},
		{
			"mesh":13,
			"name":"Cube.012",
			"scale":[
				0.3060741722583771,
				0.5663634538650513,
				0.3060741722583771
			],
			"translation":[
				-0.022969389334321022,
				-0.7186679840087891,
				0
			]
		},
		{
			"children":[
				13
			],
			"mesh":14,
			"name":"Cube.007",
			"scale":[
				1.389808177947998,
				1.389808177947998,
				1.389808177947998
			],
			"translation":[
				0.03192304074764252,
				-0.9512121081352234,
				0
			]
		},
		{
			"mesh":15,
			"name":"Cube.011",
			"scale":[
				0.24688102304935455,
				0.4568317234516144,
				0.24688105285167694
			],
			"translation":[
				0,
				-0.5998746156692505,
				0
			]
		},
		{
			"children":[
				15
			],
			"mesh":16,
			"name":"Cube.009",
			"rotation":[
				0,
				0,
				0.07668557018041611,
				0.9970554113388062
			],
			"scale":[
				1.3986223936080933,
				1.3986223936080933,
				1.3986223936080933
			],
			"translation":[
				0.03400352597236633,
				-0.748306393623352,
				0.054869335144758224
			]
		}
	],
	"materials":[
		{
			"doubleSided":true,
			"extensions":{
				"KHR_materials_transmission":{
					"transmissionFactor":0.800000011920929
				},
				"KHR_materials_ior":{
					"ior":1.4500000476837158
				}
			},
			"name":"Material.006",
			"pbrMetallicRoughness":{
				"baseColorFactor":[
					0.800000011920929,
					0.800000011920929,
					0.800000011920929,
					0.6000000238418579
				],
				"metallicFactor":0,
				"roughnessFactor":0.30000001192092896
			}
		},
		{
			"doubleSided":true,
			"name":"Material.007",
			"pbrMetallicRoughness":{
				"baseColorFactor":[
					0,
					0,
					0,
					1
				],
				"metallicFactor":0
			}
		},
		{
			"doubleSided":true,
			"name":"Bulloone",
			"pbrMetallicRoughness":{
				"baseColorFactor":[
					0.4709632098674774,
					0,
					0.03454643860459328,
					1
				],
				"metallicFactor":0,
				"roughnessFactor":0.20000000298023224
			}
		},
		{
			"doubleSided":true,
			"name":"Material.004",
			"pbrMetallicRoughness":{
				"baseColorFactor":[
					0.014418140053749084,
					0.14345604181289673,
					0.02184228226542473,
					1
				],
				"metallicFactor":0,
				"roughnessFactor":0.20000000298023224
			}
		},
		{
			"doubleSided":true,
			"name":"Material.001",
			"pbrMetallicRoughness":{
				"baseColorFactor":[
					0.37711602449417114,
					0.01185751985758543,
					0,
					1
				],
				"metallicFactor":0,
				"roughnessFactor":0
			}
		}
	],
	"meshes":[
		{
			"name":"Mesh",
			"primitives":[
				{
					"attributes":{
						"POSITION":0,
						"NORMAL":1,
						"TEXCOORD_0":2
					},
					"indices":3,
					"material":0
				}
			]
		},
		{
			"name":"Cube.002",
			"primitives":[
				{
					"attributes":{
						"POSITION":4,
						"NORMAL":5,
						"TEXCOORD_0":6
					},
					"indices":7,
					"material":0
				}
			]
		},
		{
			"name":"Cube.010",
			"primitives":[
				{
					"attributes":{
						"POSITION":8,
						"NORMAL":9,
						"TEXCOORD_0":10
					},
					"indices":11,
					"material":1
				}
			]
		},
		{
			"name":"Cube.008",
			"primitives":[
				{
					"attributes":{
						"POSITION":12,
						"NORMAL":13,
						"TEXCOORD_0":14
					},
					"indices":15,
					"material":1
				}
			]
		},
		{
			"name":"Mesh",
			"primitives":[
				{
					"attributes":{
						"POSITION":16,
						"NORMAL":17,
						"TEXCOORD_0":18
					},
					"indices":19,
					"material":1
				}
			]
		},
		{
			"name":"Mesh",
			"primitives":[
				{
					"attributes":{
						"POSITION":20,
						"NORMAL":21,
						"TEXCOORD_0":22
					},
					"indices":23,
					"material":0
				}
			]
		},
		{
			"name":"Vert.001",
			"primitives":[
				{
					"attributes":{
						"POSITION":24,
						"NORMAL":25,
						"TEXCOORD_0":26
					},
					"indices":27,
					"material":2
				}
			]
		},
		{
			"name":"Vert.002",
			"primitives":[
				{
					"attributes":{
						"POSITION":28,
						"NORMAL":29,
						"TEXCOORD_0":30
					},
					"indices":27,
					"material":2
				}
			]
		},
		{
			"name":"Vert.003",
			"primitives":[
				{
					"attributes":{
						"POSITION":31,
						"NORMAL":32,
						"TEXCOORD_0":33
					},
					"indices":27,
					"material":2
				}
			]
		},
		{
			"name":"Vert.004",
			"primitives":[
				{
					"attributes":{
						"POSITION":34,
						"NORMAL":35,
						"TEXCOORD_0":36
					},
					"indices":27,
					"material":2
				}
			]
		},
		{
			"name":"Vert",
			"primitives":[
				{
					"attributes":{
						"POSITION":37,
						"NORMAL":38,
						"TEXCOORD_0":39
					},
					"indices":27,
					"material":2
				}
			]
		},
		{
			"name":"Mesh",
			"primitives":[
				{
					"attributes":{
						"POSITION":40,
						"NORMAL":41,
						"TEXCOORD_0":42
					},
					"indices":43,
					"material":3
				}
			]
		},
		{
			"name":"Mesh",
			"primitives":[
				{
					"attributes":{
						"POSITION":44,
						"NORMAL":45,
						"TEXCOORD_0":46
					},
					"indices":47,
					"material":0
				}
			]
		},
		{
			"name":"Mesh",
			"primitives":[
				{
					"attributes":{
						"POSITION":48,
						"NORMAL":49,
						"TEXCOORD_0":50
					},
					"indices":3,
					"material":0
				}
			]
		},
		{
			"name":"Mesh",
			"primitives":[
				{
					"attributes":{
						"POSITION":51,
						"NORMAL":52,
						"TEXCOORD_0":53
					},
					"indices":23,
					"material":0
				}
			]
		},
		{
			"name":"Mesh",
			"primitives":[
				{
					"attributes":{
						"POSITION":54,
						"NORMAL":55,
						"TEXCOORD_0":56
					},
					"indices":3,
					"material":4
				}
			]
		},
		{
			"name":"Mesh",
			"primitives":[
				{
					"attributes":{
						"POSITION":57,
						"NORMAL":58,
						"TEXCOORD_0":59
					},
					"indices":60,
					"material":4
				}
			]
		}
	],
	"accessors":[
		{
			"bufferView":0,
			"componentType":5126,
			"count":5795,
			"max":[
				0.19464221596717834,
				0.1127985417842865,
				0.19464221596717834
			],
			"min":[
				-0.19464221596717834,
				-0.03744412213563919,
				-0.19464221596717834
			],
			"type":"VEC3"
		},
		{
			"bufferView":1,
			"componentType":5126,
			"count":5795,
			"type":"VEC3"
		},
		{
			"bufferView":2,
			"componentType":5126,
			"count":5795,
			"type":"VEC2"
		},
		{
			"bufferView":3,
			"componentType":5123,
			"count":33792,
			"type":"SCALAR"
		},
		{
			"bufferView":4,
			"componentType":5126,
			"count":882,
			"max":[
				0.8395062685012817,
				0.8395062685012817,
				0.8395062685012817
			],
			"min":[
				-7.483323097229004,
				-0.8395062685012817,
				-0.8395062685012817
			],
			"type":"VEC3"
		},
		{
			"bufferView":5,
			"componentType":5126,
			"count":882,
			"type":"VEC3"
		},
		{
			"bufferView":6,
			"componentType":5126,
			"count":882,
			"type":"VEC2"
		},
		{
			"bufferView":7,
			"componentType":5123,
			"count":4608,
			"type":"SCALAR"
		},
		{
			"bufferView":8,
			"componentType":5126,
			"count":756,
			"max":[
				0.9166667461395264,
				1.195082426071167,
				0.1273384839296341
			],
			"min":[
				-7.407839775085449,
				-0.9166667461395264,
				-3.318171501159668
			],
			"type":"VEC3"
		},
		{
			"bufferView":9,
			"componentType":5126,
			"count":756,
			"type":"VEC3"
		},
		{
			"bufferView":10,
			"componentType":5126,
			"count":756,
			"type":"VEC2"
		},
		{
			"bufferView":11,
			"componentType":5123,
			"count":3840,
			"type":"SCALAR"
		},
		{
			"bufferView":12,
			"componentType":5126,
			"count":3206,
			"max":[
				1.606609582901001,
				1.981711983680725,
				0.23622113466262817
			],
			"min":[
				-0.9583336114883423,
				-13.827033996582031,
				-6.567138195037842
			],
			"type":"VEC3"
		},
		{
			"bufferView":13,
			"componentType":5126,
			"count":3206,
			"type":"VEC3"
		},
		{
			"bufferView":14,
			"componentType":5126,
			"count":3206,
			"type":"VEC2"
		},
		{
			"bufferView":15,
			"componentType":5123,
			"count":16896,
			"type":"SCALAR"
		},
		{
			"bufferView":16,
			"componentType":5126,
			"count":378,
			"max":[
				0.9166667461395264,
				0.9166667461395264,
				0.12733852863311768
			],
			"min":[
				-0.9166667461395264,
				-0.9166667461395264,
				-0.4585937261581421
			],
			"type":"VEC3"
		},
		{
			"bufferView":17,
			"componentType":5126,
			"count":378,
			"type":"VEC3"
		},
		{
			"bufferView":18,
			"componentType":5126,
			"count":378,
			"type":"VEC2"
		},
		{
			"bufferView":19,
			"componentType":5123,
			"count":1920,
			"type":"SCALAR"
		},
		{
			"bufferView":20,
			"componentType":5126,
			"count":1649,
			"max":[
				0.7621365189552307,
				0.6545289754867554,
				0.7621365189552307
			],
			"min":[
				-0.7621365189552307,
				-0.8556451797485352,
				-0.7621365189552307
			],
			"type":"VEC3"
		},
		{
			"bufferView":21,
			"componentType":5126,
			"count":1649,
			"type":"VEC3"
		},
		{
			"bufferView":22,
			"componentType":5126,
			"count":1649,
			"type":"VEC2"
		},
		{
			"bufferView":23,
			"componentType":5123,
			"count":9216,
			"type":"SCALAR"
		},
		{
			"bufferView":24,
			"componentType":5126,
			"count":78,
			"max":[
				0.10622426122426987,
				0.29171863198280334,
				0.32561349868774414
			],
			"min":[
				-0.10622426122426987,
				-0.09004052728414536,
				-0.02695445530116558
			],
			"type":"VEC3"
		},
		{
			"bufferView":25,
			"componentType":5126,
			"count":78,
			"type":"VEC3"
		},
		{
			"bufferView":26,
			"componentType":5126,
			"count":78,
			"type":"VEC2"
		},
		{
			"bufferView":27,
			"componentType":5123,
			"count":360,
			"type":"SCALAR"
		},
		{
			"bufferView":28,
			"componentType":5126,
			"count":78,
			"max":[
				0.10622426122426987,
				0.29171863198280334,
				0.32561349868774414
			],
			"min":[
				-0.10622426122426987,
				-0.09004052728414536,
				-0.02695445530116558
			],
			"type":"VEC3"
		},
		{
			"bufferView":29,
			"componentType":5126,
			"count":78,
			"type":"VEC3"
		},
		{
			"bufferView":30,
			"componentType":5126,
			"count":78,
			"type":"VEC2"
		},
		{
			"bufferView":31,
			"componentType":5126,
			"count":78,
			"max":[
				0.10622426122426987,
				0.29171863198280334,
				0.32561349868774414
			],
			"min":[
				-0.10622426122426987,
				-0.09004052728414536,
				-0.02695445530116558
			],
			"type":"VEC3"
		},
		{
			"bufferView":32,
			"componentType":5126,
			"count":78,
			"type":"VEC3"
		},
		{
			"bufferView":33,
			"componentType":5126,
			"count":78,
			"type":"VEC2"
		},
		{
			"bufferView":34,
			"componentType":5126,
			"count":78,
			"max":[
				0.10622426122426987,
				0.29171863198280334,
				0.32561349868774414
			],
			"min":[
				-0.10622426122426987,
				-0.09004052728414536,
				-0.02695445530116558
			],
			"type":"VEC3"
		},
		{
			"bufferView":35,
			"componentType":5126,
			"count":78,
			"type":"VEC3"
		},
		{
			"bufferView":36,
			"componentType":5126,
			"count":78,
			"type":"VEC2"
		},
		{
			"bufferView":37,
			"componentType":5126,
			"count":78,
			"max":[
				0.10622426122426987,
				0.29171863198280334,
				0.32561349868774414
			],
			"min":[
				-0.10622426122426987,
				-0.09004052728414536,
				-0.02695445530116558
			],
			"type":"VEC3"
		},
		{
			"bufferView":38,
			"componentType":5126,
			"count":78,
			"type":"VEC3"
		},
		{
			"bufferView":39,
			"componentType":5126,
			"count":78,
			"type":"VEC2"
		},
		{
			"bufferView":40,
			"componentType":5126,
			"count":4328,
			"max":[
				0.10577098280191422,
				0.904897928237915,
				0.3994256556034088
			],
			"min":[
				-0.10577097535133362,
				-0.6675710678100586,
				-0.1004045233130455
			],
			"type":"VEC3"
		},
		{
			"bufferView":41,
			"componentType":5126,
			"count":4328,
			"type":"VEC3"
		},
		{
			"bufferView":42,
			"componentType":5126,
			"count":4328,
			"type":"VEC2"
		},
		{
			"bufferView":43,
			"componentType":5123,
			"count":24192,
			"type":"SCALAR"
		},
		{
			"bufferView":44,
			"componentType":5126,
			"count":441,
			"max":[
				0.8395062685012817,
				0.8395062685012817,
				0.8395062685012817
			],
			"min":[
				-0.8395062685012817,
				-0.8395062685012817,
				-0.8395062685012817
			],
			"type":"VEC3"
		},
		{
			"bufferView":45,
			"componentType":5126,
			"count":441,
			"type":"VEC3"
		},
		{
			"bufferView":46,
			"componentType":5126,
			"count":441,
			"type":"VEC2"
		},
		{
			"bufferView":47,
			"componentType":5123,
			"count":2304,
			"type":"SCALAR"
		},
		{
			"bufferView":48,
			"componentType":5126,
			"count":5795,
			"max":[
				0.19464221596717834,
				0.1127985417842865,
				0.19464221596717834
			],
			"min":[
				-0.19464221596717834,
				-0.03744412213563919,
				-0.19464221596717834
			],
			"type":"VEC3"
		},
		{
			"bufferView":49,
			"componentType":5126,
			"count":5795,
			"type":"VEC3"
		},
		{
			"bufferView":50,
			"componentType":5126,
			"count":5795,
			"type":"VEC2"
		},
		{
			"bufferView":51,
			"componentType":5126,
			"count":1649,
			"max":[
				0.7621365189552307,
				0.8377383947372437,
				0.7621365189552307
			],
			"min":[
				-0.7621365189552307,
				-0.6724357604980469,
				-0.7621365189552307
			],
			"type":"VEC3"
		},
		{
			"bufferView":52,
			"componentType":5126,
			"count":1649,
			"type":"VEC3"
		},
		{
			"bufferView":53,
			"componentType":5126,
			"count":1649,
			"type":"VEC2"
		},
		{
			"bufferView":54,
			"componentType":5126,
			"count":5795,
			"max":[
				0.19464221596717834,
				0.1127985417842865,
				0.19464221596717834
			],
			"min":[
				-0.19464221596717834,
				-0.03744412213563919,
				-0.19464221596717834
			],
			"type":"VEC3"
		},
		{
			"bufferView":55,
			"componentType":5126,
			"count":5795,
			"type":"VEC3"
		},
		{
			"bufferView":56,
			"componentType":5126,
			"count":5795,
			"type":"VEC2"
		},
		{
			"bufferView":57,
			"componentType":5126,
			"count":6209,
			"max":[
				0.5684528946876526,
				0.39429759979248047,
				0.33327609300613403
			],
			"min":[
				-0.5684527158737183,
				-0.5566869378089905,
				-0.33327609300613403
			],
			"type":"VEC3"
		},
		{
			"bufferView":58,
			"componentType":5126,
			"count":6209,
			"type":"VEC3"
		},
		{
			"bufferView":59,
			"componentType":5126,
			"count":6209,
			"type":"VEC2"
		},
		{
			"bufferView":60,
			"componentType":5123,
			"count":33792,
			"type":"SCALAR"
		}
	],
	"bufferViews":[
		{
			"buffer":0,
			"byteLength":69540,
			"byteOffset":0,
			"target":34962
		},
		{
			"buffer":0,
			"byteLength":69540,
			"byteOffset":69540,
			"target":34962
		},
		{
			"buffer":0,
			"byteLength":46360,
			"byteOffset":139080,
			"target":34962
		},
		{
			"buffer":0,
			"byteLength":67584,
			"byteOffset":185440,
			"target":34963
		},
		{
			"buffer":0,
			"byteLength":10584,
			"byteOffset":253024,
			"target":34962
		},
		{
			"buffer":0,
			"byteLength":10584,
			"byteOffset":263608,
			"target":34962
		},
		{
			"buffer":0,
			"byteLength":7056,
			"byteOffset":274192,
			"target":34962
		},
		{
			"buffer":0,
			"byteLength":9216,
			"byteOffset":281248,
			"target":34963
		},
		{
			"buffer":0,
			"byteLength":9072,
			"byteOffset":290464,
			"target":34962
		},
		{
			"buffer":0,
			"byteLength":9072,
			"byteOffset":299536,
			"target":34962
		},
		{
			"buffer":0,
			"byteLength":6048,
			"byteOffset":308608,
			"target":34962
		},
		{
			"buffer":0,
			"byteLength":7680,
			"byteOffset":314656,
			"target":34963
		},
		{
			"buffer":0,
			"byteLength":38472,
			"byteOffset":322336,
			"target":34962
		},
		{
			"buffer":0,
			"byteLength":38472,
			"byteOffset":360808,
			"target":34962
		},
		{
			"buffer":0,
			"byteLength":25648,
			"byteOffset":399280,
			"target":34962
		},
		{
			"buffer":0,
			"byteLength":33792,
			"byteOffset":424928,
			"target":34963
		},
		{
			"buffer":0,
			"byteLength":4536,
			"byteOffset":458720,
			"target":34962
		},
		{
			"buffer":0,
			"byteLength":4536,
			"byteOffset":463256,
			"target":34962
		},
		{
			"buffer":0,
			"byteLength":3024,
			"byteOffset":467792,
			"target":34962
		},
		{
			"buffer":0,
			"byteLength":3840,
			"byteOffset":470816,
			"target":34963
		},
		{
			"buffer":0,
			"byteLength":19788,
			"byteOffset":474656,
			"target":34962
		},
		{
			"buffer":0,
			"byteLength":19788,
			"byteOffset":494444,
			"target":34962
		},
		{
			"buffer":0,
			"byteLength":13192,
			"byteOffset":514232,
			"target":34962
		},
		{
			"buffer":0,
			"byteLength":18432,
			"byteOffset":527424,
			"target":34963
		},
		{
			"buffer":0,
			"byteLength":936,
			"byteOffset":545856,
			"target":34962
		},
		{
			"buffer":0,
			"byteLength":936,
			"byteOffset":546792,
			"target":34962
		},
		{
			"buffer":0,
			"byteLength":624,
			"byteOffset":547728,
			"target":34962
		},
		{
			"buffer":0,
			"byteLength":720,
			"byteOffset":548352,
			"target":34963
		},
		{
			"buffer":0,
			"byteLength":936,
			"byteOffset":549072,
			"target":34962
		},
		{
			"buffer":0,
			"byteLength":936,
			"byteOffset":550008,
			"target":34962
		},
		{
			"buffer":0,
			"byteLength":624,
			"byteOffset":550944,
			"target":34962
		},
		{
			"buffer":0,
			"byteLength":936,
			"byteOffset":551568,
			"target":34962
		},
		{
			"buffer":0,
			"byteLength":936,
			"byteOffset":552504,
			"target":34962
		},
		{
			"buffer":0,
			"byteLength":624,
			"byteOffset":553440,
			"target":34962
		},
		{
			"buffer":0,
			"byteLength":936,
			"byteOffset":554064,
			"target":34962
		},
		{
			"buffer":0,
			"byteLength":936,
			"byteOffset":555000,
			"target":34962
		},
		{
			"buffer":0,
			"byteLength":624,
			"byteOffset":555936,
			"target":34962
		},
		{
			"buffer":0,
			"byteLength":936,
			"byteOffset":556560,
			"target":34962
		},
		{
			"buffer":0,
			"byteLength":936,
			"byteOffset":557496,
			"target":34962
		},
		{
			"buffer":0,
			"byteLength":624,
			"byteOffset":558432,
			"target":34962
		},
		{
			"buffer":0,
			"byteLength":51936,
			"byteOffset":559056,
			"target":34962
		},
		{
			"buffer":0,
			"byteLength":51936,
			"byteOffset":610992,
			"target":34962
		},
		{
			"buffer":0,
			"byteLength":34624,
			"byteOffset":662928,
			"target":34962
		},
		{
			"buffer":0,
			"byteLength":48384,
			"byteOffset":697552,
			"target":34963
		},
		{
			"buffer":0,
			"byteLength":5292,
			"byteOffset":745936,
			"target":34962
		},
		{
			"buffer":0,
			"byteLength":5292,
			"byteOffset":751228,
			"target":34962
		},
		{
			"buffer":0,
			"byteLength":3528,
			"byteOffset":756520,
			"target":34962
		},
		{
			"buffer":0,
			"byteLength":4608,
			"byteOffset":760048,
			"target":34963
		},
		{
			"buffer":0,
			"byteLength":69540,
			"byteOffset":764656,
			"target":34962
		},
		{
			"buffer":0,
			"byteLength":69540,
			"byteOffset":834196,
			"target":34962
		},
		{
			"buffer":0,
			"byteLength":46360,
			"byteOffset":903736,
			"target":34962
		},
		{
			"buffer":0,
			"byteLength":19788,
			"byteOffset":950096,
			"target":34962
		},
		{
			"buffer":0,
			"byteLength":19788,
			"byteOffset":969884,
			"target":34962
		},
		{
			"buffer":0,
			"byteLength":13192,
			"byteOffset":989672,
			"target":34962
		},
		{
			"buffer":0,
			"byteLength":69540,
			"byteOffset":1002864,
			"target":34962
		},
		{
			"buffer":0,
			"byteLength":69540,
			"byteOffset":1072404,
			"target":34962
		},
		{
			"buffer":0,
			"byteLength":46360,
			"byteOffset":1141944,
			"target":34962
		},
		{
			"buffer":0,
			"byteLength":74508,
			"byteOffset":1188304,
			"target":34962
		},
		{
			"buffer":0,
			"byteLength":74508,
			"byteOffset":1262812,
			"target":34962
		},
		{
			"buffer":0,
			"byteLength":49672,
			"byteOffset":1337320,
			"target":34962
		},
		{
			"buffer":0,
			"byteLength":67584,
			"byteOffset":1386992,
			"target":34963
		}
	],
	"buffers":[
		{
			"byteLength":1454576,
			"uri":"model.bin"
		}
	]
}
